<svg xmlns="http://www.w3.org/2000/svg" width="1000mm" height="1000mm" viewBox="0 0 3543.3071 3543.3071"><path d="M285.665-222.615c-17.124-20.099-43.616-67.248-40.723-72.475 1.263-2.281 7.842-5.343 14.621-6.805 6.78-1.461 17.766-3.826 24.414-5.256l12.088-2.599-2.403-41.419-2.403-41.418 11.968 3.122c19.243 5.019 48.272 20.136 57.74 30.069 8.459 8.875 8.531 9.88 2.145 29.712-3.635 11.29-7.616 20.526-8.846 20.526-1.23 0-5.259-5.7-8.953-12.666-7.988-15.062-28.056-36.899-28.056-30.528 0 2.458 8.351 19.597 18.559 38.086 14.632 26.502 18.56 37.909 18.56 53.905 0 19.15-4.578 26.042-10.36 15.596-3.37-6.091-37.932-25.352-52.537-29.279-21.971-5.907-10.933 4.666 25.943 24.851 30.417 16.65 37.063 22.126 36.087 29.733-1.04 8.108-4.704 9.5-28.065 10.663-25.688 1.278-27.436.67-39.78-13.818zm109.143 11.453l-19.37-1.76-2.788-20.757c-3.832-28.534 1.303-73.365 11.408-99.594 19.702-51.144 80.893-86.088 151.198-86.342 18.9-.07 21.714 1.024 19.469 7.56-1.444 4.201-8.312 33.736-15.261 65.631-13.905 63.814-27.79 97.401-46.818 113.245-21.13 17.593-57.197 25.71-97.838 22.017zm71.377-100.076c22.276-27.743 39.818-51.204 38.983-52.136-3.8-4.245-38.908 20.63-59.36 42.06-22.967 24.063-54.314 72.819-54.314 84.476 0 10.798 31.382-20.462 74.691-74.4zm1664.747 132.947c-15.07-10.261-37.395-42.453-41.208-59.421-3.396-15.11 21.935-43.266 35.39-39.337 9.557 2.791 21.225-5.303 21.225-14.725 0-3.207-3.775-6.934-8.389-8.281-7.886-2.303-8.028-3.374-2.373-17.885 3.308-8.489 7.025-19.077 8.259-23.528 1.863-6.724 7.35-8.114 32.401-8.208 16.587-.062 38.377-2.228 48.42-4.814 12.892-3.318 19.592-3.215 22.781.35 2.642 2.956 4.518 23.715 4.518 50.012 0 41.633-1.025 47.283-13.845 76.36-18.636 42.271-38.33 58.598-70.649 58.574-15.737-.01-27.481-2.936-36.53-9.097zm28.8-36.053c8.506-1.123 21.046.13 27.866 2.785 15.637 6.087 18.642.953 11.155-19.059-7.762-20.744-26.53-29.955-44.295-21.737-15.07 6.97-24.687 21.048-24.687 36.137 0 8.775 1.482 10.302 7.249 7.473 3.986-1.956 14.207-4.476 22.713-5.6zm55.866-66.403c7.993-8.926 1.066-17.938-13.787-17.938-14.61 0-18.347 7.231-9.084 17.576 6.244 6.973 16.802 7.14 22.871.362zm-192.67 18.73c-40.28-22.85-65.974-94.44-56.43-157.22 4.31-28.34-.502-26.643 53.689-18.94 30.904 4.393 73.628 1.719 102.69-6.427 8.981-2.517 10.605-.989 13.347 12.555 5.682 28.065 2.686 74.962-6.548 102.525-21.058 62.85-65.46 90.93-106.749 67.507zm46.135-23.302c10.652-5.42 19.29-21.753 19.29-36.474 0-8.332-.8-8.423-15.166-1.72-15.694 7.323-39.952 5.432-50.068-3.904-3.953-3.647-5.177-1.311-5.177 9.875 0 28.46 26.138 44.935 51.121 32.223zm-37.46-81.04c5.216-5.826-5.91-20.206-15.633-20.206-11.28 0-16.43 6.491-13.022 16.41 2.281 6.639 23.582 9.46 28.654 3.796zm68.744-1.309c8.43-5.961 2.294-18.897-8.965-18.897-10.654 0-19.596 7.809-19.596 17.113 0 6.85 19.66 8.078 28.56 1.784zM-84.669-165.69c-5.386-6.951-6.532-15.644-7.47-56.648-.97-42.43-1.81-48.438-6.771-48.438-3.115 0-9.005-2.736-13.087-6.081-6.612-5.417-7.423-9.475-7.423-37.115 0-46.03.724-46.574 62.623-46.995l49.264-.335 58.448-26.036c49.962-22.256 58.603-27.312 59.515-34.826.587-4.835 2.466-8.79 4.175-8.79 1.847 0 3.108 46.764 3.108 115.25 0 68.486-1.261 115.25-3.108 115.25-1.709 0-3.588-3.95-4.175-8.779-.919-7.562-9.75-12.54-63.69-35.907l-62.623-27.128v-76.864l-45.924 1.087-45.924 1.087v62.508l40.08 1.954c23.379 1.14 40.078 3.581 40.078 5.86 0 2.149-3.382 4.469-7.515 5.155-7.76 1.29-10.182 10.036-4.012 14.496 2.371 1.715 2.166 4.414-.634 8.362-3.185 4.489-3.238 7.512-.231 13.144 2.475 4.636 2.707 8.182.634 9.68-1.8 1.302-3.271 17.206-3.271 35.343v32.977h-17.852c-13.896 0-19.262-1.82-24.215-8.211zm32.047-40.624v-41.021h-30.06v33.877c0 38.181 4.262 48.166 20.558 48.166h9.502v-41.022zm163.655-109.39c0-64.698-.959-83.95-4.175-83.797-2.296.109-28.973 11.097-59.283 24.417l-55.108 24.219-.95 35.235-.95 35.236 54.388 23.91c29.914 13.15 57.019 24.104 60.233 24.343 5.397.4 5.845-6.006 5.845-83.563zm-163.655 50.788c0-4.34-3.897-5.86-15.03-5.86s-15.03 1.52-15.03 5.86c0 4.341 3.897 5.86 15.03 5.86s15.03-1.519 15.03-5.86zm180.355-26.407c0-2.707 3.006-7.117 6.68-9.8 3.766-2.752 6.68-9.111 6.68-14.58 0-5.47-2.914-11.83-6.68-14.581-6.511-4.757-9.275-14.721-4.084-14.721 1.429 0 5.937 2.737 10.02 6.082 5.753 4.713 7.423 9.939 7.423 23.22 0 13.28-1.67 18.505-7.423 23.218-8.99 7.366-12.616 7.7-12.616 1.162zm587.004 105.764c0-1.528 2.108-15.095 4.679-30.15l4.674-27.373 30.841-34.584 30.841-34.585-35.519-40.252c-19.536-22.139-35.52-42.641-35.52-45.561 0-6.735 33.5-43.94 39.564-43.94 2.495 0 20.703 17.79 40.46 39.533l35.925 39.532 36.301-39.532c23.873-25.998 38.801-39.532 43.604-39.532 9.777 0 36.273 29.803 36.273 40.8 0 5.764-11.288 21.24-35.523 48.705l-35.524 40.257 35.524 39.794c19.538 21.886 35.523 42.322 35.523 45.414 0 7.138-33.416 44.25-39.843 44.25-2.649 0-20.88-17.883-40.515-39.742l-35.7-39.742-32.334 35.483c-31.917 35.024-32.619 35.538-54.272 39.742-25.793 5.009-29.464 5.193-29.459 1.483zm39.5-14.18c.889-.993-3.856-7.916-10.543-15.384-6.687-7.468-12.784-12.828-13.549-11.912-.764.917-2.474 8.992-3.8 17.945l-2.41 16.278 14.342-2.56c7.889-1.41 15.07-3.374 15.96-4.367zm169.47-10.884l14.704-16.732-34.812-38.875-34.812-38.875-16.508 19.43c-9.08 10.686-12.681 15.712-8.004 11.168 4.677-4.543 9.527-8.26 10.777-8.26 4.147 0 2.355 8.574-3.233 15.47-6.576 8.114-3.48 13.542 3.849 6.749 6.666-6.179 10.507-1.89 4.974 5.554-6.083 8.186-1.223 11.642 6.044 4.298 6.5-6.569 13.852-8.172 13.852-3.02 0 1.721-3.036 6.197-6.746 9.947-6.714 6.785-6.654 6.923 12.332 28.348 10.492 11.841 19.933 21.53 20.978 21.53 1.045 0 8.517-7.53 16.605-16.732zm-26.588-5.487c-3.648-4.074-6.632-9.073-6.632-11.11 0-5.587 12.604-18.516 18.05-18.516 4.615 0 15.11 13.434 15.11 19.34 0 4.169-12.673 17.692-16.58 17.692-1.824 0-6.3-3.333-9.948-7.406zm16.58-11.11c0-4.937-2.21-7.406-6.632-7.406-4.421 0-6.632 2.469-6.632 7.406 0 4.938 2.21 7.406 6.632 7.406s6.632-2.468 6.632-7.406zm-84.038-48.723c63.568-70.918 63.587-70.944 56.404-77.572-7.134-6.583-7.63-6.134-70.91 64.305-59.976 66.76-63.41 71.324-58.347 77.571 2.958 3.651 6.253 6.638 7.32 6.638 1.069 0 30.558-31.924 65.533-70.942zm37.542-97.425l-6.642-7.418-63.624 71.05c-63.446 70.851-63.607 71.071-57.343 78.8l6.282 7.752 63.985-71.383 63.985-71.383-6.643-7.418zm-76.935-19.467c-18.68-20.932-35.554-38.059-37.496-38.059-1.942 0-9.257 6.548-16.255 14.552-8.823 10.09-12.053 16.504-10.535 20.922 1.998 5.815 2.85 5.677 9.777-1.59 4.174-4.38 8.612-7.962 9.862-7.962 4.486 0 2.146 7.25-4.608 14.278-7.837 8.153-2.767 15.347 5.449 7.732 6.376-5.909 10.227-1.608 4.936 5.512-2.241 3.015-3.044 7.344-1.785 9.62 1.504 2.718 3.942 1.503 7.106-3.541 4.754-7.58 14.388-10.625 14.388-4.55 0 1.722-2.95 6.11-6.554 9.754-3.605 3.643-5.695 8.175-4.645 10.073 1.056 1.908 4.475.856 7.652-2.355 7.479-7.558 11.764-2.773 4.996 5.58-7.98 9.846.813 13.248 9.82 3.799 9.861-10.346 14.066-5.206 4.776 5.837-7.883 9.37-6.114 16.321 2.194 8.621 6.185-5.732 11.157-1.72 5.582 4.506-2.158 2.41-3.924 6.07-3.924 8.131 0 2.062 7.476-4.475 16.614-14.526l16.615-18.275-33.965-38.059zm116.295 34.831c2.782-3.743-.167-9.045-12.694-22.824-14.114-15.525-17.034-17.285-21.624-13.031-4.729 4.382-3.587 6.866 10.488 22.824 17.239 19.545 18.483 20.225 23.83 13.031zm23.373-26.73c5.66-7.199 10.292-14.35 10.292-15.892 0-1.542-6.71-10.159-14.913-19.149l-14.914-16.345-13.294 14.498-13.295 14.496 15.648 17.741c8.607 9.758 16.669 17.742 17.916 17.742 1.248 0 6.9-5.89 12.56-13.09zm205.023 186.106c0-3.486 4.417-5.13 15.74-5.859l15.74-1.011.827-50.88.826-50.879-15.581-1.015c-22.128-1.441-23.42-9.385-1.527-9.385 25.225 0 25.948 1.636 25.948 58.672 0 29.409-1.354 51.469-3.48 56.677-3.15 7.72-5.135 8.527-20.986 8.527-13.282 0-17.507-1.17-17.507-4.846zm106.431-11.48c-8.244-3.325-19.233-8.5-24.419-11.502-5.186-3.003-14.967-6.448-21.736-7.657-6.769-1.208-12.307-3.511-12.307-5.117 0-6.492 22.752-2.277 42.97 7.96 19.141 9.693 24.436 10.882 48.471 10.882h26.983l28.481-19.807c37.186-25.86 38.564-27.286 32.7-33.834-4.084-4.561-7.602-3.509-33.572 10.044-26.627 13.894-30.924 15.135-52.294 15.102-28.838-.046-46.334-3.095-44.921-7.829.66-2.209 6.784-3.002 15.853-2.052 37.183 3.894 49.302 1.667 80.613-14.809l29.858-15.711 7.618 6.35c14.803 12.343 10.74 19.923-23.862 44.518-17.314 12.307-36.359 24.034-42.321 26.06-15.92 5.411-41.03 4.288-58.115-2.599zm-96.1-10.748c-3.089-5.583 3.86-11.985 7.996-7.366 3.46 3.863 1.294 11.005-3.337 11.005-1.454 0-3.55-1.637-4.658-3.64zm130.062-42.922c-16.485-1.636-22.549-4.037-34.478-13.655-12.17-9.812-17.705-11.944-34.767-13.392-25.96-2.202-27.61-8.105-2.633-9.423 17.887-.945 20.18-.18 37.684 12.555 15.78 11.48 21.051 13.56 34.367 13.56 16.526 0 28.71 4.835 25.734 10.212-.968 1.75-2.693 2.943-3.832 2.654-1.14-.29-11.073-1.42-22.075-2.511zm-2.482-60.23c-54.902-45.907-66.02-106.969-23.851-130.993 13.572-7.732 23.155-8.264 30.897-1.714 7.758 6.563 3.758 11.946-6.449 8.677-19.3-6.181-42.606 14.62-42.54 37.97.091 32.76 46.7 93.498 67.315 87.72 4.157-1.165 15.659-10.97 25.559-21.788 19.075-20.843 32.943-48.43 32.974-65.59.022-11.978-9.13-29.885-17.975-35.171-14.343-8.572-37.842-2.454-46.366 12.073-5.133 8.75-10.57 10.62-10.57 3.636 0-4.912 12.233-18.224 24.629-26.801 10.597-7.333 17.994-7.106 32.202.988 20.817 11.86 30.222 35.021 24.26 59.745-5.405 22.418-26.27 53.488-47.87 71.285-10.851 8.942-20.404 16.257-21.228 16.257-.825 0-10.269-7.332-20.987-16.294zm62.2-100.484c-9.204-10.89-10.076-13.693-4.26-13.693 4.824 0 17.012 13.946 17.012 19.467 0 6.417-3.965 4.622-12.752-5.774zm244.484 253.956c-.034-4.203-1.235-5.533-2.804-3.101-1.51 2.34-7.371 4.506-13.025 4.81-10.106.545-10.279.139-10.279-24.227 0-22.837 4.185-32.177 8.749-19.526 1.427 3.958 2.89 3.698 5.918-1.05 3.575-5.606 4.431-5.606 7.703 0 2.526 4.328 3.698-9.187 3.738-43.095.053-46.14-.423-49.4-7.207-49.4-9.401 0-19.087-15.543-15.817-25.383 1.388-4.177 30.702-32.464 65.144-62.86l62.62-55.266 63.34 55.553c34.837 30.553 64.305 58.38 65.484 61.835 3.044 8.922-8.019 26.12-16.801 26.12-6.945 0-7.386 2.973-7.333 49.401.036 31.266 1.304 47.185 3.453 43.365 2.814-5.003 4.405-5.095 9.288-.537 3.943 3.682 5.891 3.94 5.891.781 0-2.595 1.682-4.719 3.738-4.719 2.076 0 3.738 11.212 3.738 25.226 0 23.202-4.165 32.72-8.738 19.97-1.508-4.204-1.944-4.204-2.18 0-.163 2.89-2.678 5.256-5.59 5.256-2.913 0-6.144-2.365-7.181-5.255-1.127-3.14-2.004-2.294-2.18 2.102-.274 6.824-7.884 7.357-104.954 7.357-97.16 0-104.662-.527-104.715-7.357zm112.99-46.248l1.07-40.992 30.836-1.221 30.837-1.221v84.426h26.165v-138.186l-48.352-42.074-48.352-42.074-48.83 42.291-48.831 42.29v137.753h104.387l1.07-40.992zm-78.53-12.613l1.106-28.379 30.837-1.221 30.836-1.221v59.2h-63.884l1.106-28.379zm25.402 13.664c0-3.504-3.323-6.306-7.476-6.306-4.153 0-7.476 2.803-7.476 6.306 0 3.504 3.323 6.307 7.476 6.307 4.153 0 7.476-2.803 7.476-6.307zm26.164 0c0-3.504-3.322-6.306-7.475-6.306-4.154 0-7.476 2.803-7.476 6.306 0 3.504 3.322 6.307 7.476 6.307 4.153 0 7.475-2.803 7.475-6.307zm-26.164-25.226c0-3.503-3.323-6.306-7.476-6.306-4.153 0-7.476 2.803-7.476 6.306 0 3.504 3.323 6.307 7.476 6.307 4.153 0 7.476-2.803 7.476-6.307zm26.164 0c0-3.503-3.322-6.306-7.475-6.306-4.154 0-7.476 2.803-7.476 6.306 0 3.504 3.322 6.307 7.476 6.307 4.153 0 7.475-2.803 7.475-6.307zm-49.837-38.54c-1.37-1.541-2.492-12.893-2.492-25.225v-22.423h63.543v50.452h-29.28c-16.103 0-30.4-1.262-31.771-2.803zm49.837-16.116c0-4.841-4.776-6.306-20.558-6.306s-20.558 1.465-20.558 6.306c0 4.842 4.776 6.307 20.558 6.307s20.558-1.465 20.558-6.307zm0-18.92c0-2.312-9.25-4.204-20.558-4.204-11.307 0-20.558 1.892-20.558 4.205 0 2.312 9.251 4.204 20.558 4.204s20.558-1.892 20.558-4.204zm26.165 12.614v-25.226h63.542v50.452h-63.542v-25.226zm43.986 9.608c-5.617-.959-15.709-.978-22.427-.042-6.718.936-2.123 1.721 10.212 1.745 12.335.024 17.831-.742 12.215-1.702zm8.343-18.017c0-7.39-2.492-8.409-20.558-8.409s-20.558 1.02-20.558 8.409c0 7.39 2.492 8.409 20.558 8.409s20.558-1.02 20.558-8.409zm0 98.802v-35.737h-41.116v71.473h41.116v-35.736zm-175.676 18.67c0-2.175-1.682-3.955-3.738-3.955s-3.738 2.95-3.738 6.554c0 3.605 1.682 5.386 3.738 3.956 2.056-1.429 3.738-4.378 3.738-6.554zm9.95-5.006c-1.036-2.89-1.885-.526-1.885 5.255 0 5.78.849 8.146 1.886 5.255 1.037-2.89 1.037-7.62 0-10.51zm213.055 0c-1.037-2.89-1.885-.526-1.885 5.255 0 5.78.848 8.146 1.885 5.255 1.037-2.89 1.037-7.62 0-10.51zm15.029 4.467c-1.193-3.354-2.08-2.358-2.258 2.54-.163 4.432.72 6.915 1.963 5.518 1.242-1.397 1.375-5.023.295-8.058zm-175.107-171.638l53.064-46.296 53.16 46.296c51.3 44.675 68.335 54.807 65.635 39.038-.684-3.992-27.666-30.564-59.96-59.05l-58.718-51.792-59.923 52.958c-32.958 29.127-59.923 55.7-59.923 59.05 0 13.608 16.154 3.866 66.665-40.204zm1202.94 177.688c-6.989-7.183-11.17-42.873-11.17-95.339 0-103.167.627-103.666 130.322-103.666s130.323.5 130.323 103.666c0 52.466-4.182 88.156-11.17 95.34-15.406 15.832-222.9 15.832-238.305 0zm232.267-86.586c-.263-40.782-.689-78.454-.945-83.717-.283-5.82-44.216-9.567-112.17-9.567h-111.705v172.805l112.65-2.686 112.65-2.687-.48-74.148zm-182.493 30.355l36.797-39.01-37.235-32.605c-20.479-17.932-31.905-32.668-25.39-32.747 6.514-.078 30.6 17.628 53.525 39.347l41.681 39.489 41.681-39.49c22.925-21.718 47.012-39.326 53.526-39.129 6.514.198-4.894 15.078-25.352 33.068l-37.195 32.707 36.757 38.69c20.217 21.28 32.54 38.69 27.386 38.69-5.155 0-23.491-14.973-40.749-33.273-24.045-25.499-34.259-30.813-43.715-22.747-8.974 7.655-15.704 7.655-24.678 0-9.456-8.066-19.67-2.752-43.715 22.747-17.257 18.3-35.594 33.272-40.749 33.272-5.154 0 7.187-17.554 27.425-39.01zm449.159 45.919c-51.437-35.825-104.303-110.69-104.303-147.708 0-14.34 7.978-36.038 17.73-48.217l17.73-22.142 29.636 30.105c27.927 28.37 28.893 31.532 16.75 54.852-12.363 23.742-11.297 26.271 26.228 62.247 37.792 36.233 39.716 36.94 56.932 20.926 17.16-15.961 18.822-15.584 45.037 10.23 31.655 31.17 34.153 46.957 9.568 60.48-31.768 17.474-70.38 10.518-115.308-20.773zm-875.351-25.283c-49.578-70.348-58.747-107.103-37.614-150.787 14.242-29.439 53.254-53.949 85.87-53.949 28.11 0 64.6 22.407 78.055 47.93 22.995 43.618 16.242 81.194-25.502 141.9-58.685 85.345-51.875 84.338-100.809 14.906zm73.134-100.153c10.997-20.155-7.992-42.56-33.123-39.08-24.91 3.449-32.552 37.09-11.806 51.97 16.377 11.746 34.292 6.606 44.93-12.89z"/></svg>